<svg width="100" height="100" viewBox="0 0 100 100" fill="none" xmlns="http://www.w3.org/2000/svg">
<path d="M16.6667 37.5H83.3334L79.8542 75.7542C79.6661 77.8246 78.7108 79.75 77.1759 81.1523C75.641 82.5546 73.6374 83.3325 71.5584 83.3333H28.4417C26.3627 83.3325 24.3591 82.5546 22.8242 81.1523C21.2894 79.75 20.3341 77.8246 20.1459 75.7542L16.6667 37.5Z" stroke="black" stroke-width="4.16667" stroke-linejoin="round"/>
<path d="M33.3335 45.8337V33.3337C33.3335 28.9134 35.0894 24.6742 38.215 21.5485C41.3407 18.4229 45.5799 16.667 50.0002 16.667C54.4204 16.667 58.6597 18.4229 61.7853 21.5485C64.9109 24.6742 66.6668 28.9134 66.6668 33.3337V45.8337" stroke="black" stroke-width="4.16667" stroke-linecap="round"/>
</svg>
